<?xml version="1.0" encoding="utf-8"?>
<!-- Generator: Adobe Illustrator 25.0.1, SVG Export Plug-In . SVG Version: 6.00 Build 0)  -->
<svg version="1.1" id="Layer_1" xmlns="http://www.w3.org/2000/svg" xmlns:xlink="http://www.w3.org/1999/xlink" x="0px" y="0px"
	 viewBox="0 0 46 46" style="enable-background:new 0 0 46 46;" xml:space="preserve">
<style type="text/css">
	.st0{fill:none;stroke:#A4B1CD;stroke-width:2;}
	.st1{enable-background:new    ;}
	.st2{fill:#A4B1CD;}
	.st3{fill:#9FEF00;}
</style>
<desc>Created with Sketch.</desc>
<g id="Page-1">
	<g id="badge-prohacker" transform="translate(1.000000, 1.000000)">
		<path id="Rectangle" class="st0" d="M5,0h34c2.8,0,5,2.2,5,5v34c0,2.8-2.2,5-5,5H5c-2.8,0-5-2.2-5-5V5C0,2.2,2.2,0,5,0z"/>
		<g id="Group-7" transform="translate(4.000000, 3.000000)">
			<g id="Group-6">
				<g id="Group-3" transform="translate(0.611676, 0.553285)">
					<g id="Label-Copy-7" transform="translate(18.000000, 4.000000)">
						<g class="st1">
							<path class="st2" d="M9.5,17.7l-0.8,4.5H7.4c-0.2,0-0.4-0.1-0.6-0.3c-0.2-0.2-0.2-0.4-0.2-0.6c0,0,0-0.1,0-0.1s0-0.1,0-0.1
								l0.6-3.4H5l-0.6,3.5c-0.1,0.4-0.2,0.6-0.5,0.8c-0.2,0.2-0.5,0.2-0.8,0.2H2l0.8-4.5H1.5c-0.2,0-0.4-0.1-0.5-0.2
								c-0.1-0.1-0.2-0.3-0.2-0.6c0-0.1,0-0.2,0-0.4L1,15.7h2.1l0.6-3H1.3l0.2-1.1c0.1-0.3,0.2-0.5,0.3-0.6s0.5-0.2,0.9-0.2h1.2
								l0.7-3.5C4.7,6.9,4.8,6.7,5,6.5s0.5-0.2,0.7-0.2H7l-0.8,4.5h2.2l0.8-4.5h1.2c0.3,0,0.5,0.1,0.6,0.2c0.2,0.1,0.2,0.3,0.2,0.6
								c0,0.1,0,0.1,0,0.2l-0.7,3.5h2.2l-0.2,1.1c-0.1,0.3-0.2,0.5-0.3,0.6s-0.5,0.2-0.9,0.2h-1.1l-0.6,3h1.6c0.2,0,0.4,0.1,0.5,0.2
								c0.1,0.1,0.2,0.3,0.2,0.6c0,0.1,0,0.2,0,0.4l-0.1,0.9H9.5z M5.3,15.7h2.3l0.6-3H5.9L5.3,15.7z"/>
						</g>
					</g>
					
						<g id="Label-Copy-9" transform="translate(9.009732, 15.360827) rotate(8.000000) translate(-9.009732, -15.360827) translate(2.009732, 0.860827)">
						<g class="st1">
							<path class="st3" d="M8.9,16.2c0.4,0,0.8-0.1,1-0.4c0.2-0.3,0.4-0.7,0.4-1.2l2.4,0c0,0.6-0.1,1.2-0.2,1.7
								c-0.2,0.5-0.4,0.9-0.7,1.3c-0.3,0.4-0.7,0.6-1.1,0.8c-0.4,0.2-1,0.3-1.5,0.3c-0.4,0-0.8-0.1-1.2-0.2
								c-0.4-0.1-0.8-0.2-1.1-0.4c-0.3-0.1-0.7-0.3-1-0.4S5.2,17.6,5,17.6c-0.4,0-0.8,0.1-1,0.4c-0.2,0.3-0.4,0.7-0.4,1.2l-2.4,0
								c0-0.6,0.1-1.2,0.2-1.7c0.2-0.5,0.4-0.9,0.7-1.3c0.3-0.4,0.7-0.6,1.1-0.8c0.4-0.2,1-0.3,1.5-0.3c0.4,0,0.8,0.1,1.2,0.2
								c0.4,0.1,0.8,0.2,1.1,0.4c0.3,0.1,0.7,0.3,1,0.4C8.4,16.2,8.7,16.2,8.9,16.2z"/>
						</g>
					</g>
				</g>
			</g>
		</g>
	</g>
</g>
</svg>
